Coordinates
version=1
nRows=23
nColumns=28
inDegrees=yes

Units are S.I. units (second, meters, Newtons, ...)
Angles are in degrees.

endheader
time	pelvis_tilt	pelvis_list	pelvis_rotation	pelvis_tx	pelvis_ty	pelvis_tz	hip_flexion_r	hip_adduction_r	hip_rotation_r	knee_angle_r	ankle_angle_r	subtalar_angle_r	mtp_angle_r	hip_flexion_l	hip_adduction_l	hip_rotation_l	knee_angle_l	socket_flexion	socket_adduction	socket_rotation	socket_tx	socket_ty	socket_tz	foot_flex	lumbar_extension	lumbar_bending	lumbar_rotation
      0.00000000	     -0.92362294	     -6.79110112	     -8.54434391	     -0.88027613	      0.99293248	      0.27485999	    -24.57258863	      9.24636497	      5.11662684	     -2.44748155	      5.34224738	    -12.55298384	     10.89317033	     25.51271330	    -10.33969912	      9.96619716	      2.08081025	      6.14246065	      0.00000000	      0.00000000	      0.00000000	      0.00000000	      0.00000000	     -0.37787948	    -11.28411278	      4.98364493	     10.44559795
      0.00416667	     -0.98541868	     -6.81919632	     -8.46881194	     -0.87476473	      0.99237035	      0.27446082	    -24.68572324	      9.25224775	      5.17820900	     -2.66097110	      5.29630997	    -12.55156444	     10.89209361	     25.36587695	    -10.24952335	      9.97143727	      2.06345100	      6.10959661	      0.00000000	      0.00000000	      0.00000000	      0.00000000	      0.00000000	     -0.45145937	    -11.14105640	      5.02639229	     10.44914026
      0.00833333	     -1.02244245	     -6.85925350	     -8.50645705	     -0.86935114	      0.99198019	      0.27415679	    -24.62399584	      9.22780803	      5.12340118	     -3.26727419	      5.07528018	    -12.63943686	     10.86524802	     25.11505276	    -10.22940027	      9.95824007	      2.19227747	      6.11239010	      0.00000000	      0.00000000	      0.00000000	      0.00000000	      0.00000000	     -0.89897056	    -11.10733343	      5.04968581	     10.42967471
      0.01250000	     -1.09029747	     -6.88469338	     -8.43366540	     -0.86340312	      0.99143001	      0.27377835	    -24.72326258	      9.23635663	      5.18208328	     -3.53112572	      5.01581905	    -12.64277068	     10.86367020	     24.93753152	    -10.13789047	      9.97115860	      2.19275627	      6.09276174	      0.00000000	      0.00000000	      0.00000000	      0.00000000	      0.00000000	     -0.97053212	    -10.95063321	      5.09462825	     10.43336988
      0.01666667	     -1.15106959	     -6.91754827	     -8.50274832	     -0.85764951	      0.99103712	      0.27355019	    -24.56628223	      9.20156706	      5.09557126	     -4.31500675	      4.73904175	    -12.75303850	     10.83393001	     24.64050420	    -10.13754203	      9.99014325	      2.44697468	      6.18304965	      0.00000000	      0.00000000	      0.00000000	      0.00000000	      0.00000000	     -1.43482180	    -10.90840983	      5.10187224	     10.41426637
      0.02083333	     -1.22162826	     -6.94262519	     -8.41912638	     -0.85136795	      0.99052263	      0.27312996	    -24.66504688	      9.20587742	      5.16210015	     -4.58721666	      4.68137231	    -12.75404196	     10.83423641	     24.44489934	    -10.03728139	     10.00816548	      2.45080279	      6.17955806	      0.00000000	      0.00000000	      0.00000000	      0.00000000	      0.00000000	     -1.49095970	    -10.72778318	      5.15225949	     10.42054704
      0.02500000	     -1.39922220	     -6.90707221	     -8.81562265	     -0.84473748	      0.99009239	      0.27355794	    -24.33037011	      9.00063492	      5.11354132	     -5.56675326	      4.43526735	    -12.72666128	     11.19307533	     23.59121463	    -10.23023226	      9.72991564	      4.23976853	      7.21662003	      0.00000000	      0.00000000	      0.00000000	      0.00000000	      0.00000000	     -1.89003353	    -10.45671286	      5.05949246	     10.71660334
      0.02916667	     -1.40494321	     -6.90482509	     -8.80082867	     -0.83853879	      0.98981017	      0.27319078	    -24.32100831	      8.94453097	      5.09970164	     -6.15434575	      4.17672011	    -12.78406831	     11.19087458	     23.27454674	    -10.13603640	      9.78026412	      4.33411329	      7.25128201	      0.00000000	      0.00000000	      0.00000000	      0.00000000	      0.00000000	     -2.17548922	    -10.41238088	      5.03449284	     10.71868092
      0.03333333	     -1.46553692	     -6.91308913	     -8.69772002	     -0.83197038	      0.98943794	      0.27272304	    -24.41922359	      8.94086343	      5.20218604	     -6.44517090	      4.10360712	    -12.77720994	     11.18938294	     23.05576938	    -10.00675385	      9.84028087	      4.30404847	      7.24340117	      0.00000000	      0.00000000	      0.00000000	      0.00000000	      0.00000000	     -2.22969730	    -10.22498649	      5.06306476	     10.72016019
      0.03750000	     -1.53451766	     -6.78902598	     -8.87906579	     -0.82535768	      0.98917023	      0.27286707	    -24.15162523	      8.71286450	      5.04505203	     -7.42033417	      3.61110842	    -13.00756238	     11.40987290	     22.37196585	     -9.97135933	      9.78570467	      5.40988178	      7.87766506	      0.00000000	      0.00000000	      0.00000000	      0.00000000	      0.00000000	     -2.62571958	    -10.09007377	      4.84717033	     10.77495948
      0.04166667	     -1.56550026	     -6.74808543	     -8.83435729	     -0.81898176	      0.98899357	      0.27250878	    -24.10080662	      8.64708949	      5.14210402	     -8.02328409	      3.33383265	    -13.03693097	     11.39596497	     22.07649368	     -9.84185667	      9.92443085	      5.48116399	      7.91474677	      0.00000000	      0.00000000	      0.00000000	      0.00000000	      0.00000000	     -2.86666488	    -10.00873031	      4.77490541	     10.75178109
      0.04583333	     -1.59864317	     -6.69340699	     -8.83225096	     -0.81249425	      0.98888660	      0.27217656	    -23.94650048	      8.54062504	      5.05321098	     -8.79785349	      2.94396088	    -13.18397418	     11.36890756	     21.71149723	     -9.71958090	      9.96221435	      5.70874769	      8.06053583	      0.00000000	      0.00000000	      0.00000000	      0.00000000	      0.00000000	     -3.11560809	     -9.90208569	      4.70181883	     10.71318971
      0.05000000	     -1.66866113	     -6.56976273	     -8.85876926	     -0.80572760	      0.98877000	      0.27199699	    -23.75612483	      8.36644832	      4.93776911	     -9.56903289	      2.50928137	    -13.38778291	     11.40335523	     21.27748498	     -9.56660353	      9.93724194	      6.16590638	      8.35082393	      0.00000000	      0.00000000	      0.00000000	      0.00000000	      0.00000000	     -3.31133616	     -9.70649160	      4.54592634	     10.68150858
      0.05416667	     -1.70908663	     -6.36802143	     -8.94916352	     -0.79876124	      0.98873545	      0.27200437	    -23.66672468	      8.08922645	      5.01742710	    -10.19079648	      2.02710891	    -13.62263888	     11.76701368	     20.70607158	     -9.37702148	      9.86532986	      6.82659977	      8.74238551	      0.00000000	      0.00000000	      0.00000000	      0.00000000	      0.00000000	     -3.52186360	     -9.48245356	      4.26037586	     10.74053380
      0.05833333	     -1.71651012	     -6.28093691	     -8.85566465	     -0.79236741	      0.98884195	      0.27156358	    -23.53295728	      8.00482742	      5.12651222	    -10.92841083	      1.66269416	    -13.67617340	     11.74347375	     20.40916867	     -9.18800053	     10.03781139	      6.86227248	      8.82179541	      0.00000000	      0.00000000	      0.00000000	      0.00000000	      0.00000000	     -3.67158309	     -9.43247451	      4.12068886	     10.69270330
      0.06250000	     -1.73097003	     -6.10541098	     -8.86143553	     -0.78566883	      0.98900368	      0.27129427	    -23.25547366	      7.77175130	      4.86059464	    -11.89643695	      1.05002174	    -13.93645364	     11.72838030	     20.00214650	     -8.95088064	      9.96324987	      7.09200617	      8.99806210	      0.00000000	      0.00000000	      0.00000000	      0.00000000	      0.00000000	     -3.86764524	     -9.29906725	      3.91995944	     10.60013015
      0.06666667	     -1.75686403	     -5.80098659	     -8.82722101	     -0.77875706	      0.98914483	      0.27111530	    -23.04550691	      7.43984397	      4.73607198	    -12.68272594	      0.44810164	    -14.17655434	     12.00752980	     19.58435359	     -8.58620875	      9.92209096	      7.39873080	      9.22718989	      0.00000000	      0.00000000	      0.00000000	      0.00000000	      0.00000000	     -4.01110848	     -9.08442997	      3.52229230	     10.52159550
      0.07083333	     -1.75053901	     -5.58897771	     -8.77405035	     -0.77211611	      0.98942637	      0.27075476	    -22.77864077	      7.19490787	      4.58006227	    -13.62853522	     -0.17170683	    -14.34730088	     12.16542236	     19.22411113	     -8.29135382	      9.94518320	      7.49181214	      9.34316031	      0.00000000	      0.00000000	      0.00000000	      0.00000000	      0.00000000	     -4.14797347	     -8.97395813	      3.25821321	     10.41675115
      0.07500000	     -1.74691163	     -5.32686357	     -8.70446822	     -0.76544302	      0.98975078	      0.27039297	    -22.49820411	      6.90957556	      4.43101692	    -14.57009869	     -0.78520328	    -14.49259559	     12.32178439	     18.87494604	     -7.94388679	      9.96149510	      7.58263997	      9.48281699	      0.00000000	      0.00000000	      0.00000000	      0.00000000	      0.00000000	     -4.27584776	     -8.84327847	      2.93098444	     10.30023850
      0.07916667	     -1.64276711	     -4.92353455	     -8.58359795	     -0.75858318	      0.99013335	      0.26994425	    -22.22719674	      6.41802582	      3.79884271	    -15.59302214	     -1.90001414	    -14.46895714	     15.26050454	     18.42528576	     -7.41120365	      9.89381325	      7.67553053	      9.60077926	      0.00000000	      0.00000000	      0.00000000	      0.00000000	      0.00000000	     -4.40222970	     -8.78109319	      2.42115048	     10.12401084
      0.08333333	     -1.63248400	     -4.62810036	     -8.49482050	     -0.75190622	      0.99057077	      0.26954603	    -21.88005503	      6.10141454	      3.61026512	    -16.64096420	     -2.58329591	    -14.65833615	     15.15524791	     18.11049266	     -7.01925893	      9.88107332	      7.67086077	      9.69140245	      0.00000000	      0.00000000	      0.00000000	      0.00000000	      0.00000000	     -4.50018708	     -8.65350515	      2.05544581	      9.97872877
      0.08750000	     -1.61885849	     -4.26971944	     -8.38751169	     -0.74510633	      0.99102629	      0.26917739	    -21.50953408	      5.72233677	      3.34546709	    -17.72091097	     -3.28051369	    -14.78047996	     15.15391726	     17.78791416	     -6.56271324	      9.83982421	      7.67134812	      9.78586535	      0.00000000	      0.00000000	      0.00000000	      0.00000000	      0.00000000	     -4.57978490	     -8.49358218	      1.58663183	      9.81908371
      0.09166667	     -1.55640632	     -4.01056418	     -8.30438449	     -0.73856414	      0.99163961	      0.26862529	    -21.10836023	      5.40652927	      3.10268531	    -18.93307538	     -4.01264123	    -14.86497756	     15.10205289	     17.42522074	     -6.20014634	      9.82465022	      7.65571747	      9.88402596	      0.00000000	      0.00000000	      0.00000000	      0.00000000	      0.00000000	     -4.65700207	     -8.45688552	      1.29821213	      9.67460058
